<?xml version="1.0" encoding="UTF-8"?> <svg xmlns="http://www.w3.org/2000/svg" width="483.9844" height="667.7344" viewBox="0 0 483.9844 667.7344"><g id="Layer_2" data-name="Layer 2"><g id="_3._Pull_Quote_Panel" data-name="3. Pull Quote Panel"><path d="M710.8237,814.16c0-3.2813-.82-8.2032-.82-11.4844-.82-12.3047-22.9687-10.6641-45.1172,4.9219-49.2187,36.914-118.9453,65.625-193.5937,65.625-121.4063,0-240.3516-164.8829-240.3516-333.8672S354.8081,205.4883,481.1362,205.4883c69.7266,0,132.07,27.8906,179.6485,64.8047,23.789,17.2265,47.5781,21.3281,49.2187,8.2031,0-3.2813.82-8.2031.82-11.4844h4.1016v82.8516H704.2612c-.82-3.2813-4.1015-9.8438-4.9218-13.125-17.2266-48.3985-89.4141-94.336-89.4141-94.336-38.5547-21.3281-82.0313-35.2734-128.7891-35.2734-115.664,0-229.6875,164.0625-229.6875,332.2266S360.55,871.582,472.1128,871.582c52.5,0,104.18-16.4062,146.8359-40.1953,38.5547-23.789,76.2891-66.4453,85.3125-102.539h10.6641V814.16Z" transform="translate(-230.9409 -205.4883)"></path></g></g></svg> 